<svg xmlns="http://www.w3.org/2000/svg" viewBox="-5 -5 510 515" fill="#989695">
  <path d="M408.76,106.68c-13.8,13.95-21.03,71.79-21.03,71.79s57.2-7.33,70.99-21.28c13.8-13.95,13.8-36.57,0-50.51 C444.93,92.73,422.56,92.73,408.76,106.68"/>
  <path d="M344.23,41.42c-13.8,13.95-21.03,71.79-21.03,71.79s57.2-7.33,70.99-21.28c13.79-13.95,13.79-36.57,0-50.52 C380.39,27.47,358.02,27.47,344.23,41.42"/>
  <path d="M344.23,41.42c-13.8,13.95-21.03,71.79-21.03,71.79s57.2-7.33,70.99-21.28c13.79-13.95,13.79-36.57,0-50.52 C380.39,27.47,358.02,27.47,344.23,41.42"/>
  <path d="M352.83,199.02c13.8-13.95,21.03-71.79,21.03-71.79s-57.2,7.33-70.99,21.27c-13.8,13.95-13.8,36.57,0,50.52 C316.66,212.96,339.03,212.96,352.83,199.02"/>
  <path d="M464.2,263.09c-19.51,0-65.07,35.72-65.07,35.72s45.56,35.72,65.07,35.72s35.33-15.99,35.33-35.72 C499.53,279.08,483.71,263.09,464.2,263.09"/>
  <path d="M464.2,170.8c-19.51,0-65.07,35.72-65.07,35.72s45.56,35.72,65.07,35.72s35.33-15.99,35.33-35.72 C499.53,186.8,483.71,170.8,464.2,170.8"/>
  <path d="M464.2,170.8c-19.51,0-65.07,35.72-65.07,35.72s45.56,35.72,65.07,35.72s35.33-15.99,35.33-35.72 C499.53,186.8,483.71,170.8,464.2,170.8"/>
  <path d="M360.08,288.39c19.51,0,65.08-35.72,65.08-35.72s-45.57-35.72-65.08-35.72s-35.33,15.99-35.33,35.72 C324.75,272.39,340.57,288.39,360.08,288.39"/>
  <path d="M394.03,413.33c-13.79-13.95-70.99-21.27-70.99-21.27s7.24,57.83,21.03,71.78c13.79,13.95,36.16,13.95,49.95,0 C407.82,449.89,407.82,427.28,394.03,413.33"/>
  <path d="M458.56,348.07c-13.8-13.95-70.99-21.27-70.99-21.27s7.24,57.83,21.03,71.78c13.79,13.95,36.16,13.95,49.95,0 C472.36,384.64,472.36,362.02,458.56,348.07"/>
  <path d="M458.56,348.07c-13.8-13.95-70.99-21.27-70.99-21.27s7.24,57.83,21.03,71.78c13.79,13.95,36.16,13.95,49.95,0 C472.36,384.64,472.36,362.02,458.56,348.07"/>
  <path d="M302.71,356.77c13.8,13.95,70.99,21.27,70.99,21.27s-7.24-57.83-21.03-71.78c-13.8-13.95-36.16-13.95-49.96,0 C288.92,320.2,288.92,342.82,302.71,356.77"/>
  <path d="M239.35,469.39c0-19.73-35.33-65.8-35.33-65.8s-35.32,46.07-35.32,65.8c0,19.73,15.81,35.72,35.32,35.72 C223.53,505.11,239.35,489.12,239.35,469.39"/>
  <path d="M330.62,469.39c0-19.73-35.33-65.8-35.33-65.8s-35.33,46.07-35.33,65.8c0,19.73,15.82,35.72,35.33,35.72 S330.62,489.12,330.62,469.39"/>
  <path d="M330.62,469.39c0-19.73-35.33-65.8-35.33-65.8s-35.33,46.07-35.33,65.8c0,19.73,15.82,35.72,35.33,35.72 S330.62,489.12,330.62,469.39"/>
  <path d="M214.33,364.1c0,19.73,35.33,65.8,35.33,65.8s35.33-46.07,35.33-65.8s-15.82-35.72-35.33-35.72 C230.14,328.38,214.33,344.37,214.33,364.1"/>
  <path d="M90.77,398.43c13.8-13.95,21.03-71.79,21.03-71.79s-57.2,7.33-70.99,21.28c-13.8,13.95-13.8,36.57,0,50.51 C54.6,412.38,76.97,412.38,90.77,398.43"/>
  <path d="M155.3,463.69c13.8-13.95,21.03-71.79,21.03-71.79s-57.2,7.33-70.99,21.28c-13.8,13.95-13.8,36.57,0,50.51 C119.14,477.64,141.51,477.64,155.3,463.69"/>
  <path d="M155.3,463.69c13.8-13.95,21.03-71.79,21.03-71.79s-57.2,7.33-70.99,21.28c-13.8,13.95-13.8,36.57,0,50.51 C119.14,477.64,141.51,477.64,155.3,463.69"/>
  <path d="M146.7,306.09c-13.8,13.95-21.03,71.79-21.03,71.79s57.2-7.33,70.99-21.28c13.8-13.95,13.8-36.57,0-50.51 C182.87,292.14,160.5,292.14,146.7,306.09"/>
  <path d="M35.33,242.02c19.51,0,65.08-35.72,65.08-35.72s-45.57-35.72-65.08-35.72S0,186.57,0,206.3 C0,226.03,15.82,242.02,35.33,242.02"/>
  <path d="M35.33,334.31c19.51,0,65.08-35.72,65.08-35.72s-45.57-35.72-65.08-35.72S0,278.86,0,298.58 C0,318.31,15.82,334.31,35.33,334.31"/>
  <path d="M35.33,334.31c19.51,0,65.08-35.72,65.08-35.72s-45.57-35.72-65.08-35.72S0,278.86,0,298.58 C0,318.31,15.82,334.31,35.33,334.31"/>
  <path d="M139.45,216.72c-19.51,0-65.08,35.72-65.08,35.72s45.57,35.72,65.08,35.72s35.33-15.99,35.33-35.72 C174.78,232.72,158.96,216.72,139.45,216.72"/>
  <path d="M105.5,91.78c13.8,13.95,70.99,21.27,70.99,21.27s-7.24-57.83-21.03-71.78c-13.8-13.95-36.16-13.95-49.96,0 S91.71,77.83,105.5,91.78"/>
  <path d="M40.97,157.04c13.8,13.95,70.99,21.27,70.99,21.27s-7.24-57.83-21.03-71.78c-13.8-13.95-36.16-13.95-49.96,0 C27.17,120.47,27.17,143.09,40.97,157.04"/>
  <path d="M40.97,157.04c13.8,13.95,70.99,21.27,70.99,21.27s-7.24-57.83-21.03-71.78c-13.8-13.95-36.16-13.95-49.96,0 C27.17,120.47,27.17,143.09,40.97,157.04"/>
  <path d="M196.82,148.34c-13.8-13.95-70.99-21.27-70.99-21.27s7.24,57.83,21.03,71.78c13.8,13.95,36.16,13.95,49.96,0 C210.62,184.91,210.62,162.29,196.82,148.34"/>
  <path d="M260.18,35.72c0,19.73,35.33,65.8,35.33,65.8s35.33-46.07,35.33-65.8C330.84,15.99,315.02,0,295.51,0 S260.18,15.99,260.18,35.72"/>
  <path d="M168.91,35.72c0,19.73,35.33,65.8,35.33,65.8s35.33-46.07,35.33-65.8C239.57,15.99,223.75,0,204.24,0 S168.91,15.99,168.91,35.72"/>
  <path d="M168.91,35.72c0,19.73,35.33,65.8,35.33,65.8s35.33-46.07,35.33-65.8C239.57,15.99,223.75,0,204.24,0 S168.91,15.99,168.91,35.72"/>
  <path d="M285.2,141.01c0-19.73-35.33-65.8-35.33-65.8s-35.32,46.07-35.32,65.8s15.81,35.72,35.32,35.72 C269.39,176.73,285.2,160.74,285.2,141.01"/>
</svg>
